#!OML:ASF H:\Terrain\Patient Classification 1\Walking\liu\liu.ASF
:FULLY-SPECIFIED
:DEGREES
193
root 9.23029 16.6949 -4.77403 5.71937 -7.68726 1.57742
lowerback -3.79401 2.09316 -3.02557
upperback -1.12902 2.88317 1.85642
thorax 0.718873 1.44728 3.72658
lowerneck -21.9129 -4.18249 -12.7887
upperneck 20.7283 -4.52735 11.7181
head 10.8846 -1.68013 5.72362
rclavicle -1.90088e-014 -1.27222e-014
rhumerus -33.3222 15.2959 -88.1484
rradius 33.4904
rwrist -17.0188
rhand -32.1002 -25.1437
rfingers 7.12502
rthumb -5.34548 -55.0563
lclavicle -1.90088e-014 -1.27222e-014
lhumerus -42.3358 11.7749 76.5206
lradius 14.5948
lwrist -19.031
lhand -12.4997 -27.8842
lfingers 7.12502
lthumb 13.5754 1.65321
rfemur -9.23138 -4.94601 16.305
rtibia 66.1521
rfoot 4.87859 -12.2997
rtoes -15.9178
lfemur -28.5586 8.35441 -27.2274
ltibia 32.9148
lfoot -9.7515 2.83245
ltoes -3.08295
194
root 9.24981 16.726 -4.6014 5.6465 -7.52493 1.68711
lowerback -3.95721 1.98906 -2.91913
upperback -0.996266 2.74481 1.79545
thorax 0.966762 1.37074 3.60934
lowerneck -22.0545 -4.20792 -12.5553
upperneck 20.8696 -4.56815 11.4558
head 10.9558 -1.7081 5.58252
rclavicle -5.48149e-014 -2.70347e-014
rhumerus -33.5757 14.6333 -88.0539
rradius 32.6886
rwrist -16.1797
rhand -31.9058 -26.6355
rfingers 7.12502
rthumb -5.15779 -56.5527
lclavicle -5.48149e-014 -2.70347e-014
lhumerus -40.8868 10.3682 77.948
lradius 15.0574
lwrist -17.9807
lhand -12.2047 -27.3395
lfingers 7.12502
lthumb 13.8598 2.17866
rfemur -10.751 -5.43419 16.3696
rtibia 67.6589
rfoot 4.42022 -13.8285
rtoes -14.2055
lfemur -27.3168 8.28463 -27.3778
ltibia 32.0293
lfoot -9.91675 2.73938
ltoes -1.44298
195
root 9.27505 16.7617 -4.40752 5.34694 -7.38238 2.32696
lowerback -4.133 1.85359 -3.27778
upperback -0.862935 2.58695 1.59031
thorax 1.20889 1.28382 3.6034
lowerneck -21.9767 -4.2056 -12.4441
upperneck 20.9536 -4.59004 11.343
head 10.9692 -1.72523 5.51939
rclavicle -3.10104e-014 -1.59028e-015
rhumerus -34.1486 13.9703 -87.9603
rradius 32.0911
rwrist -15.3307
rhand -31.7449 -28.3114
rfingers 7.12502
rthumb -5.00242 -58.2324
lclavicle -3.10104e-014 -1.59028e-015
lhumerus -39.6747 8.54696 79.4927
lradius 15.633
lwrist -16.583
lhand -13.0457 -27.1899
lfingers 7.12502
lthumb 13.0491 2.38187
rfemur -11.7918 -5.71523 15.6603
rtibia 68.9662
rfoot 2.55071 -14.6968
rtoes -10.9318
lfemur -25.6986 8.1432 -28.1247
ltibia 31.142
lfoot -10.3894 2.7195
ltoes -0.933573
196
root 9.29142 16.8015 -4.22634 5.13151 -7.08638 2.66258
lowerback -4.24838 1.66753 -3.44346
upperback -0.72062 2.35174 1.51479
thorax 1.43662 1.15833 3.61593
lowerneck -21.7478 -4.17707 -12.6289
upperneck 20.7758 -4.55486 11.5467
head 10.8659 -1.70505 5.62671
rclavicle 1.67725e-014 1.82882e-014
rhumerus -34.6775 13.5609 -87.8515
rradius 31.5731
rwrist -14.507
rhand -32.2365 -26.6991
rfingers 7.12502
rthumb -5.47709 -56.6084
lclavicle 1.67725e-014 1.82882e-014
lhumerus -38.3336 7.20435 80.7909
lradius 15.9603
lwrist -15.1732
lhand -9.27346 -26.3554
lfingers 7.12502
lthumb 16.6832 2.94767
rfemur -12.9936 -5.92362 15.4661
rtibia 70.0767
rfoot 1.36013 -15.0966
rtoes -10.088
lfemur -24.2834 7.9147 -28.5151
ltibia 30.3724
lfoot -10.7344 2.69862
ltoes -0.718403
197
root 9.29631 16.8351 -4.08581 5.23779 -6.64083 2.25685
lowerback -4.25852 1.50938 -3.0061
upperback -0.616142 2.11948 1.64326
thorax 1.58128 1.03945 3.494
lowerneck -21.9203 -4.21733 -12.7514
upperneck 20.7326 -4.59944 11.7554
head 10.8982 -1.7056 5.72012
rclavicle -2.04748e-014 9.54166e-015
rhumerus -35.149 13.2364 -87.7187
rradius 31.2794
rwrist -13.7569
rhand -32.939 -24.9322
rfingers 7.12502
rthumb -6.15529 -54.8228
lclavicle -2.04748e-014 9.54166e-015
lhumerus -36.5901 5.8676 82.0165
lradius 16.0464
lwrist -13.8993
lhand -8.72671 -26.2468
lfingers 7.12502
lthumb 17.2095 3.01115
rfemur -14.7483 -6.00595 16.4369
rtibia 71.0034
rfoot 0.511733 -15.6286
rtoes -10.0773
lfemur -23.4587 7.42433 -28.0244
ltibia 29.6534
lfoot -10.8296 2.86888
ltoes -0.26253
198
root 9.29392 16.8551 -3.9725 5.54861 -5.98666 1.66364
lowerback -4.09213 1.21632 -2.55833
upperback -0.690333 1.70069 1.8761
thorax 1.45222 0.835508 3.45523
lowerneck -22.295 -4.14452 -12.5283
upperneck 20.8979 -4.52026 11.6812
head 11.0103 -1.65095 5.67528
rclavicle 1.33186e-014 -4.77083e-015
rhumerus -35.423 12.7623 -87.5487
rradius 30.7444
rwrist -13.1043
rhand -32.9837 -26.2358
rfingers 7.12502
rthumb -6.1985 -56.1251
lclavicle 1.33186e-014 -4.77083e-015
lhumerus -35.0636 4.32377 83.117
lradius 16.4056
lwrist -12.9909
lhand -8.68645 -25.8535
lfingers 7.12502
lthumb 17.2482 3.40102
rfemur -16.9137 -6.11278 17.8292
rtibia 71.7916
rfoot -0.5357 -16.2118
rtoes -11.8498
lfemur -23.1514 6.84521 -27.3183
ltibia 29.1452
lfoot -11.0298 2.967
ltoes -0.984733
199
root 9.31508 16.8841 -3.79193 5.48443 -5.5524 1.91809
lowerback -4.27114 0.87473 -2.695
upperback -0.696272 1.2546 1.87918
thorax 1.57819 0.609509 3.51758
lowerneck -22.2251 -3.94087 -12.3288
upperneck 21.0353 -4.28591 11.5485
head 11.0052 -1.54671 5.63309
rclavicle 2.45996e-015 2.38542e-014
rhumerus -35.8382 12.3107 -87.3819
rradius 30.0881
rwrist -12.5361
rhand -32.7658 -27.0624
rfingers 7.12502
rthumb -5.98813 -56.9578
lclavicle 2.45996e-015 2.38542e-014
lhumerus -33.9892 3.76674 83.5957
lradius 16.7975
lwrist -13.4721
lhand -7.96269 -25.4804
lfingers 7.12502
lthumb 17.9447 3.71175
rfemur -18.1605 -6.39961 17.7788
rtibia 72.2215
rfoot -1.87689 -15.7696
rtoes -14.4155
lfemur -22.1122 6.65953 -27.6898
ltibia 28.7355
lfoot -11.8006 2.97423
ltoes -1.12308
200
root 9.32626 16.913 -3.62792 5.464 -5.01505 1.74541
lowerback -4.24868 0.617594 -2.48449
upperback -0.779932 0.899162 2.02495
thorax 1.50912 0.434976 3.52952
lowerneck -22.1939 -3.89107 -12.2834
upperneck 21.3686 -4.21422 11.3752
head 11.1066 -1.53493 5.58372
rclavicle 4.47266e-015 7.95139e-015
rhumerus -36.6408 12.0001 -87.2107
rradius 29.9296
rwrist -12.2239
rhand -32.2714 -24.9742
rfingers 7.12502
rthumb -5.5108 -54.8825
lclavicle 4.47266e-015 7.95139e-015
lhumerus -32.8554 3.08761 84.2185
lradius 16.9843
lwrist -13.5892
lhand -8.08827 -25.5796
lfingers 7.12502
lthumb 17.8239 3.62353
rfemur -19.4748 -6.53704 18.3269
rtibia 72.4447
rfoot -3.17046 -15.3358
rtoes -13.1487
lfemur -21.1948 6.44947 -27.5402
ltibia 28.3369
lfoot -12.2727 2.92482
ltoes -1.23204
201
root 9.32677 16.9347 -3.47989 5.49147 -4.41899 1.35191
lowerback -4.15919 0.396318 -2.18056
upperback -0.835989 0.585863 2.23611
thorax 1.42718 0.281414 3.55825
lowerneck -22.4991 -3.89958 -12.0716
upperneck 21.9152 -4.21932 11.06
head 11.3563 -1.55462 5.44945
rclavicle -1.56543e-015 -5.56597e-015
rhumerus -37.4275 11.9327 -87.1079
rradius 29.8113
rwrist -12.2517
rhand -32.0302 -22.4959
rfingers 7.12502
rthumb -5.27787 -52.4101
lclavicle -1.56543e-015 -5.56597e-015
lhumerus -31.6703 1.11173 85.4156
lradius 17.388
lwrist -12.0595
lhand -8.79182 -25.2959
lfingers 7.12502
lthumb 17.1468 3.96749
rfemur -20.8833 -6.56579 19.2134
rtibia 72.4557
rfoot -3.82224 -14.8773
rtoes -11.0033
lfemur -20.3573 5.96336 -27.0537
ltibia 27.8749
lfoot -12.5221 2.91247
ltoes -1.87601
202
root 9.32885 16.9514 -3.32953 5.46565 -3.80199 1.20125
lowerback -4.04876 0.142398 -2.08004
upperback -0.905001 0.24028 2.34812
thorax 1.32125 0.111385 3.59825
lowerneck -22.2174 -3.84373 -12.1204
upperneck 22.095 -4.19178 11.138
head 11.3689 -1.54581 5.4983
rclavicle -1.43622e-014 1.59028e-015
rhumerus -38.2729 11.9365 -87.0462
rradius 29.6932
rwrist -12.4583
rhand -32.2585 -22.7807
rfingers 7.12502
rthumb -5.4983 -52.6893
lclavicle -1.43622e-014 1.59028e-015
lhumerus -30.514 -0.685172 86.2896
lradius 17.7631
lwrist -11.2124
lhand -9.03749 -25
lfingers 7.12502
lthumb 16.9104 4.28384
rfemur -22.1532 -6.65542 19.7826
rtibia 72.2714
rfoot -4.85912 -14.0508
rtoes -10.7504
lfemur -19.4796 5.39771 -26.8133
ltibia 27.4387
lfoot -12.6939 2.9052
ltoes -1.60645
203
root 9.33498 16.9452 -3.16874 5.36894 -3.33074 1.36291
lowerback -4.01541 -0.0898928 -2.22151
upperback -0.859601 -0.0641385 2.33259
thorax 1.37303 -0.0428305 3.6467
lowerneck -22.008 -3.80575 -12.2298
upperneck 22.0563 -4.16231 11.2848
head 11.3162 -1.52915 5.57586
rclavicle 9.7653e-015 7.15625e-015
rhumerus -38.8126 11.6198 -86.8884
rradius 29.8105
rwrist -12.7577
rhand -30.8824 -25.844
rfingers 7.12502
rthumb -4.16957 -55.7829
lclavicle 9.7653e-015 7.15625e-015
lhumerus -29.0824 -2.51496 86.987
lradius 17.8137
lwrist -10.5952
lhand -9.39623 -25.3166
lfingers 7.12502
lthumb 16.565 3.99641
rfemur -23.3521 -6.59088 19.929
rtibia 71.9977
rfoot -6.50457 -13.1602
rtoes -10.7461
lfemur -18.5685 4.95402 -26.9508
ltibia 27.0943
lfoot -12.9622 2.96772
ltoes -1.28626
204
root 9.34077 16.945 -3.00184 5.28239 -2.9109 1.55632
lowerback -4.01019 -0.362698 -2.50352
upperback -0.795773 -0.417776 2.39313
thorax 1.46633 -0.223512 3.85082
lowerneck -22.6203 -3.7399 -11.7613
upperneck 22.4396 -4.03278 10.7173
head 11.535 -1.48773 5.31658
rclavicle -1.1778e-014 -3.02153e-014
rhumerus -39.3213 11.5676 -86.7812
rradius 29.7604
rwrist -12.6994
rhand -30.2548 -28.6003
rfingers 7.12502
rthumb -3.56349 -58.5503
lclavicle -1.1778e-014 -3.02153e-014
lhumerus -27.8733 -5.04985 87.9843
lradius 18.2327
lwrist -8.65869
lhand -9.78459 -25.0641
lfingers 7.12502
lthumb 16.1911 4.27967
rfemur -24.4769 -6.46797 20.0229
rtibia 71.4833
rfoot -7.74038 -12.4591
rtoes -11.1269
lfemur -17.6383 4.55016 -27.1537
ltibia 26.77
lfoot -13.2949 3.05229
ltoes -1.42365
205
root 9.3407 16.946 -2.84496 5.13764 -2.35214 1.5219
lowerback -3.86113 -0.648981 -2.5889
upperback -0.80946 -0.801093 2.54953
thorax 1.40495 -0.414727 4.04224
lowerneck -22.8014 -3.61705 -11.5804
upperneck 22.7317 -3.84909 10.4558
head 11.6453 -1.42016 5.2278
rclavicle 4.44781e-015 -2.62396e-014
rhumerus -40.2105 11.7556 -86.7402
rradius 29.6263
rwrist -12.5904
rhand -30.9748 -29.545
rfingers 7.12502
rthumb -4.25881 -59.4822
lclavicle 4.44781e-015 -2.62396e-014
lhumerus -26.9033 -6.35066 88.5196
lradius 19.0448
lwrist -7.69987
lhand -9.34601 -24.0165
lfingers 7.12502
lthumb 16.6133 5.29249
rfemur -25.4733 -6.44268 20.4098
rtibia 70.7777
rfoot -8.93134 -11.8101
rtoes -11.0622
lfemur -16.6959 4.33425 -27.0954
ltibia 26.534
lfoot -13.4978 2.88648
ltoes -0.582584
206
root 9.34119 16.9495 -2.6906 5.01629 -1.8408 1.49138
lowerback -3.76246 -0.860593 -2.57056
upperback -0.814086 -1.08691 2.6255
thorax 1.37171 -0.557213 4.09687
lowerneck -22.1308 -3.51553 -12.0874
upperneck 22.4638 -3.73542 10.9993
head 11.4219 -1.3596 5.52862
rclavicle 1.39149e-015 1.98785e-014
rhumerus -41.2431 12.1169 -86.876
rradius 30.1253
rwrist -13.6953
rhand -30.091 -29.7049
rfingers 7.12502
rthumb -3.40532 -59.6574
lclavicle 1.39149e-015 1.98785e-014
lhumerus -25.8704 -7.30849 88.8144
lradius 19.8054
lwrist -7.19623
lhand -9.58169 -24.0851
lfingers 7.12502
lthumb 16.3864 5.24273
rfemur -26.5425 -6.35616 20.7518
rtibia 69.9648
rfoot -10.0914 -11.1772
rtoes -9.59712
lfemur -15.7753 3.93824 -27.0066
ltibia 26.3079
lfoot -13.7962 2.90871
ltoes 0.476477
207
root 9.34488 16.9479 -2.53468 5.05569 -1.42578 1.47677
lowerback -3.84687 -1.06565 -2.56538
upperback -0.786376 -1.3606 2.67697
thorax 1.47342 -0.696611 4.13147
lowerneck -22.0729 -3.49893 -12.0478
upperneck 22.4528 -3.72211 10.9623
head 11.403 -1.35603 5.5085
rclavicle -1.98039e-014 -3.02153e-014
rhumerus -42.2384 12.8795 -87.2103
rradius 30.9803
rwrist -15.1382
rhand -29.2377 -30.1635
rfingers 7.12502
rthumb -2.58132 -60.1276
lclavicle -1.98039e-014 -3.02153e-014
lhumerus -24.9007 -9.85721 89.4663
lradius 20.6412
lwrist -5.00362
lhand -11.3412 -25.3037
lfingers 7.12502
lthumb 14.6917 4.15579
rfemur -27.846 -6.19521 21.0444
rtibia 69.0773
rfoot -10.9619 -10.6894
rtoes -9.881
lfemur -15.0762 3.30838 -26.9434
ltibia 26.1211
lfoot -14.5005 3.11782
ltoes 0.261339
